<svg width="625" height="109" viewBox="0 0 625 109" fill="none" xmlns="http://www.w3.org/2000/svg">
<mask id="path-1-outside-1_49_330" maskUnits="userSpaceOnUse" x="-0.979696" y="-1.01473" width="626.198" height="109.154" fill="black">
<rect fill="white" x="-0.979696" y="-1.01473" width="626.198" height="109.154"/>
<path d="M92.5271 66.6555C92.5578 83.2635 78.8397 88.6648 55.417 89.38L55.4347 98.98L46.3147 98.9968L46.297 89.3968C19.1276 88.6789 9.12808 80.2494 9.1024 66.3294L36.6544 66.2786C36.6621 70.5026 39.5457 72.4172 46.2669 73.0769L46.2487 63.1889C44.5203 63.0001 42.5998 62.7156 40.3914 62.5277C19.4585 59.8783 10.906 55.286 10.8805 41.4621C10.8543 27.2541 22.2652 20.129 46.1681 19.5089L46.1506 10.005L55.2706 9.98814L55.2883 19.5881C79.3865 20.7917 88.0426 29.5117 88.0644 41.3197L61.3765 41.3689C61.3713 38.5849 59.6401 36.8601 55.3187 36.1001L55.3361 45.5081C77.5161 47.6752 92.4947 49.0875 92.5271 66.6555ZM36.9904 40.2619C36.9953 42.9499 39.7809 43.8088 46.2143 44.5649L46.198 35.7329C39.2868 36.1297 36.9858 37.7659 36.9904 40.2619ZM55.3871 73.156C61.7225 72.8563 64.408 71.5074 64.4029 68.7234C64.3983 66.2274 63.0529 65.4619 55.371 64.42L55.3871 73.156ZM184.237 47.8623C186.595 76.85 168.473 89.2675 141.498 89.3172C118.746 89.3592 95.4027 81.3382 95.353 54.3623C95.3034 27.4823 117.752 19.3769 139.928 19.336C160.472 19.2981 178.534 26.4648 182.692 43.0652L155.716 43.1149C153.214 39.4715 148.984 36.5033 139.96 36.52C127.576 36.5428 122.02 43.1771 122.041 54.3131C122.062 65.545 129.754 72.1549 141.754 72.1327C152.218 72.1134 156.433 67.4976 157.675 64.3274L138.091 64.3635L138.061 47.9475L184.237 47.8623ZM239.843 20.4957C259.811 20.4589 269.042 28.5059 269.07 43.6739C269.103 61.6258 256.634 67.6968 238.106 67.731L216.698 67.7705L216.735 87.7385L190.335 87.7872L190.211 20.5873L239.843 20.4957ZM234.234 50.5541C239.994 50.5435 242.774 48.5224 242.766 43.9144C242.758 39.6904 239.971 37.8715 234.211 37.8821L216.643 37.9145L216.666 50.5865L234.234 50.5541ZM318.355 19.0069C341.107 18.965 363.971 27.6588 364.019 53.8668C364.068 80.1707 341.236 88.9488 318.484 88.9908C295.732 89.0328 272.964 80.3387 272.915 54.0348C272.867 27.8268 295.603 19.0489 318.355 19.0069ZM318.452 71.8068C330.74 71.7842 337.255 64.7641 337.235 53.9162C337.215 43.1642 330.674 36.1682 318.386 36.1909C306.098 36.2136 299.583 43.2336 299.603 53.9856C299.623 64.8335 306.164 71.8295 318.452 71.8068ZM443.227 20.1206L443.259 37.4966L417.819 37.5435L417.911 87.3674L391.511 87.4161L391.419 37.5922L365.979 37.6391L365.947 20.2631L443.227 20.1206ZM500.896 20.0142L527.296 19.9655L527.369 59.5175C527.418 85.9174 509.087 88.6392 488.255 88.6777C467.519 88.7159 449.082 86.0619 449.033 59.662L448.96 20.11L475.36 20.0613L475.431 58.3653C475.449 68.1573 479.199 71.5103 488.223 71.4937C497.343 71.4769 500.985 68.1102 500.967 58.3182L500.896 20.0142ZM577.212 44.4495C600.064 46.7114 615.618 47.8347 615.651 65.6907C615.684 83.4506 599.949 88.4717 573.549 88.5204C543.213 88.5763 532.253 79.9565 532.226 65.3645L559.778 65.3137C559.788 70.4977 564.207 72.3136 575.055 72.2935C583.791 72.2774 587.533 71.0225 587.527 67.7585C587.52 64.2065 584.736 64.2117 563.516 61.5628C542.583 58.9134 534.03 54.4172 534.005 40.4972C533.977 25.7132 546.444 18.5862 572.46 18.5382C601.068 18.4855 611.165 27.6829 611.189 40.3548L584.501 40.4041C584.493 36.5641 581.13 34.6503 572.298 34.6666C563.082 34.6836 560.109 36.5131 560.114 39.297C560.121 42.945 565.018 43.224 577.212 44.4495Z"/>
</mask>
<path d="M92.5271 66.6555C92.5578 83.2635 78.8397 88.6648 55.417 89.38L55.4347 98.98L46.3147 98.9968L46.297 89.3968C19.1276 88.6789 9.12808 80.2494 9.1024 66.3294L36.6544 66.2786C36.6621 70.5026 39.5457 72.4172 46.2669 73.0769L46.2487 63.1889C44.5203 63.0001 42.5998 62.7156 40.3914 62.5277C19.4585 59.8783 10.906 55.286 10.8805 41.4621C10.8543 27.2541 22.2652 20.129 46.1681 19.5089L46.1506 10.005L55.2706 9.98814L55.2883 19.5881C79.3865 20.7917 88.0426 29.5117 88.0644 41.3197L61.3765 41.3689C61.3713 38.5849 59.6401 36.8601 55.3187 36.1001L55.3361 45.5081C77.5161 47.6752 92.4947 49.0875 92.5271 66.6555ZM36.9904 40.2619C36.9953 42.9499 39.7809 43.8088 46.2143 44.5649L46.198 35.7329C39.2868 36.1297 36.9858 37.7659 36.9904 40.2619ZM55.3871 73.156C61.7225 72.8563 64.408 71.5074 64.4029 68.7234C64.3983 66.2274 63.0529 65.4619 55.371 64.42L55.3871 73.156ZM184.237 47.8623C186.595 76.85 168.473 89.2675 141.498 89.3172C118.746 89.3592 95.4027 81.3382 95.353 54.3623C95.3034 27.4823 117.752 19.3769 139.928 19.336C160.472 19.2981 178.534 26.4648 182.692 43.0652L155.716 43.1149C153.214 39.4715 148.984 36.5033 139.96 36.52C127.576 36.5428 122.02 43.1771 122.041 54.3131C122.062 65.545 129.754 72.1549 141.754 72.1327C152.218 72.1134 156.433 67.4976 157.675 64.3274L138.091 64.3635L138.061 47.9475L184.237 47.8623ZM239.843 20.4957C259.811 20.4589 269.042 28.5059 269.07 43.6739C269.103 61.6258 256.634 67.6968 238.106 67.731L216.698 67.7705L216.735 87.7385L190.335 87.7872L190.211 20.5873L239.843 20.4957ZM234.234 50.5541C239.994 50.5435 242.774 48.5224 242.766 43.9144C242.758 39.6904 239.971 37.8715 234.211 37.8821L216.643 37.9145L216.666 50.5865L234.234 50.5541ZM318.355 19.0069C341.107 18.965 363.971 27.6588 364.019 53.8668C364.068 80.1707 341.236 88.9488 318.484 88.9908C295.732 89.0328 272.964 80.3387 272.915 54.0348C272.867 27.8268 295.603 19.0489 318.355 19.0069ZM318.452 71.8068C330.74 71.7842 337.255 64.7641 337.235 53.9162C337.215 43.1642 330.674 36.1682 318.386 36.1909C306.098 36.2136 299.583 43.2336 299.603 53.9856C299.623 64.8335 306.164 71.8295 318.452 71.8068ZM443.227 20.1206L443.259 37.4966L417.819 37.5435L417.911 87.3674L391.511 87.4161L391.419 37.5922L365.979 37.6391L365.947 20.2631L443.227 20.1206ZM500.896 20.0142L527.296 19.9655L527.369 59.5175C527.418 85.9174 509.087 88.6392 488.255 88.6777C467.519 88.7159 449.082 86.0619 449.033 59.662L448.96 20.11L475.36 20.0613L475.431 58.3653C475.449 68.1573 479.199 71.5103 488.223 71.4937C497.343 71.4769 500.985 68.1102 500.967 58.3182L500.896 20.0142ZM577.212 44.4495C600.064 46.7114 615.618 47.8347 615.651 65.6907C615.684 83.4506 599.949 88.4717 573.549 88.5204C543.213 88.5763 532.253 79.9565 532.226 65.3645L559.778 65.3137C559.788 70.4977 564.207 72.3136 575.055 72.2935C583.791 72.2774 587.533 71.0225 587.527 67.7585C587.52 64.2065 584.736 64.2117 563.516 61.5628C542.583 58.9134 534.03 54.4172 534.005 40.4972C533.977 25.7132 546.444 18.5862 572.46 18.5382C601.068 18.4855 611.165 27.6829 611.189 40.3548L584.501 40.4041C584.493 36.5641 581.13 34.6503 572.298 34.6666C563.082 34.6836 560.109 36.5131 560.114 39.297C560.121 42.945 565.018 43.224 577.212 44.4495Z" fill="url(#paint0_linear_49_330)"/>
<path d="M55.417 89.38L55.1423 80.3842L46.4009 80.6511L46.417 89.3966L55.417 89.38ZM55.4347 98.98L55.4513 107.98L64.4513 107.963L64.4347 98.9634L55.4347 98.98ZM46.3147 98.9968L37.3147 99.0134L37.3313 108.013L46.3313 107.997L46.3147 98.9968ZM46.297 89.3968L55.297 89.3802L55.2809 80.6311L46.5347 80.4L46.297 89.3968ZM9.1024 66.3294L9.0858 57.3294L0.0858175 57.346L0.102417 66.346L9.1024 66.3294ZM36.6544 66.2786L45.6543 66.262L45.6377 57.262L36.6378 57.2786L36.6544 66.2786ZM46.2669 73.0769L45.3879 82.0338L55.2852 83.0051L55.2669 73.0603L46.2669 73.0769ZM46.2487 63.1889L55.2487 63.1723L55.2338 55.1169L47.2261 54.2421L46.2487 63.1889ZM40.3914 62.5277L39.2614 71.4564L39.4444 71.4796L39.6283 71.4953L40.3914 62.5277ZM46.1681 19.5089L46.4015 28.5059L55.1843 28.2781L55.1681 19.4923L46.1681 19.5089ZM46.1506 10.005L46.134 1.00497L37.134 1.02157L37.1506 10.0216L46.1506 10.005ZM55.2706 9.98814L64.2705 9.97154L64.2539 0.971553L55.254 0.988153L55.2706 9.98814ZM55.2883 19.5881L46.2883 19.6047L46.304 28.1506L54.8393 28.5769L55.2883 19.5881ZM88.0644 41.3197L88.081 50.3197L97.081 50.3031L97.0644 41.3031L88.0644 41.3197ZM61.3765 41.3689L52.3765 41.3855L52.3931 50.3855L61.3931 50.3689L61.3765 41.3689ZM55.3187 36.1001L56.8777 27.2361L46.2989 25.3756L46.3187 36.1167L55.3187 36.1001ZM55.3361 45.5081L46.3361 45.5247L46.3511 53.6731L54.4609 54.4654L55.3361 45.5081ZM46.2143 44.5649L45.1638 53.5034L55.233 54.6868L55.2143 44.5483L46.2143 44.5649ZM46.198 35.7329L55.198 35.7163L55.1805 26.2025L45.6822 26.7477L46.198 35.7329ZM55.3871 73.156L46.3871 73.1726L46.4045 82.591L55.8123 82.146L55.3871 73.156ZM55.371 64.42L56.5805 55.5017L46.3519 54.1145L46.371 64.4366L55.371 64.42ZM83.5272 66.6721C83.5325 69.5638 82.9481 71.3881 82.2418 72.611C81.5449 73.8177 80.4083 74.9968 78.4096 76.1028C74.036 78.5229 66.5882 80.0347 55.1423 80.3842L55.6917 98.3758C67.6685 98.0101 78.7911 96.4637 87.1246 91.8523C91.4794 89.4426 95.2304 86.1126 97.829 81.6132C100.418 77.13 101.537 72.0512 101.527 66.6389L83.5272 66.6721ZM46.417 89.3966L46.4347 98.9966L64.4347 98.9634L64.417 89.3634L46.417 89.3966ZM55.4181 89.98L46.2981 89.9968L46.3313 107.997L55.4513 107.98L55.4181 89.98ZM55.3147 98.9802L55.297 89.3802L37.297 89.4134L37.3147 99.0134L55.3147 98.9802ZM46.5347 80.4C33.5338 80.0564 26.3 77.8528 22.5169 75.3279C19.4703 73.2947 18.1105 70.7259 18.1024 66.3128L0.102417 66.346C0.119952 75.8528 3.77275 84.4588 12.5248 90.2998C20.5402 95.6492 31.8908 98.0193 46.0593 98.3937L46.5347 80.4ZM9.119 75.3294L36.671 75.2786L36.6378 57.2786L9.0858 57.3294L9.119 75.3294ZM27.6544 66.2952C27.6628 70.8672 29.4582 75.3727 33.7955 78.3969C37.3243 80.8574 41.6622 81.6682 45.3879 82.0338L47.1459 64.1199C45.7901 63.9868 44.8987 63.8143 44.3432 63.6598C43.7786 63.5027 43.8003 63.4293 44.0906 63.6318C44.4594 63.8889 44.9704 64.3905 45.3273 65.1336C45.6582 65.8227 45.6544 66.2993 45.6543 66.262L27.6544 66.2952ZM55.2669 73.0603L55.2487 63.1723L37.2487 63.2055L37.2669 73.0935L55.2669 73.0603ZM47.2261 54.2421C46.0049 54.1087 43.4318 53.7539 41.1546 53.5601L39.6283 71.4953C41.7678 71.6773 43.0358 71.8914 45.2713 72.1356L47.2261 54.2421ZM41.5215 53.5989C31.0784 52.2772 25.6471 50.624 22.8263 48.7225C21.6617 47.9375 21.0831 47.1938 20.7078 46.3931C20.2868 45.495 19.8852 44.004 19.8805 41.4455L1.88055 41.4787C1.88858 45.8322 2.56563 50.0992 4.40955 54.0329C6.29915 58.0641 9.17184 61.226 12.7652 63.6482C19.4602 68.1612 28.7716 70.1288 39.2614 71.4564L41.5215 53.5989ZM19.8805 41.4455C19.8728 37.2835 21.2576 34.9295 24.3081 33.03C28.1082 30.6638 35.002 28.8016 46.4015 28.5059L45.9347 10.512C33.4313 10.8363 22.6682 12.8468 14.7937 17.7501C6.16959 23.1202 1.86203 31.4326 1.88055 41.4787L19.8805 41.4455ZM55.1681 19.4923L55.1506 9.98836L37.1506 10.0216L37.1681 19.5255L55.1681 19.4923ZM46.1672 19.0049L55.2872 18.9881L55.254 0.988153L46.134 1.00497L46.1672 19.0049ZM46.2706 10.0047L46.2883 19.6047L64.2883 19.5715L64.2705 9.97154L46.2706 10.0047ZM54.8393 28.5769C66.1027 29.1394 72.241 31.4258 75.375 33.7292C77.9946 35.6546 79.0582 37.9556 79.0644 41.3363L97.0644 41.3031C97.0488 32.8758 93.7735 24.9128 86.035 19.2253C78.8109 13.9158 68.5721 11.2403 55.7372 10.5993L54.8393 28.5769ZM88.0478 32.3197L61.3599 32.3689L61.3931 50.3689L88.081 50.3197L88.0478 32.3197ZM70.3764 41.3523C70.37 37.8622 69.1611 34.136 65.9791 31.2789C63.1978 28.7816 59.7644 27.7438 56.8777 27.2361L53.7598 44.964C54.3944 45.0757 54.671 45.1788 54.7073 45.1936C54.736 45.2052 54.4041 45.0769 53.9533 44.6722C53.4631 44.232 53.0038 43.6167 52.7023 42.8779C52.4158 42.1755 52.3769 41.621 52.3765 41.3855L70.3764 41.3523ZM46.3187 36.1167L46.3361 45.5247L64.3361 45.4915L64.3187 36.0835L46.3187 36.1167ZM54.4609 54.4654C66.1496 55.6075 73.745 56.4397 78.6648 58.5672C80.8064 59.4933 81.7894 60.4203 82.3297 61.2319C82.8694 62.0425 83.5214 63.5706 83.5272 66.6721L101.527 66.6389C101.517 60.9564 100.284 55.72 97.3131 51.2571C94.3427 46.7951 90.1888 43.9396 85.8092 42.0458C77.6865 38.5333 66.7025 37.5758 56.2113 36.5507L54.4609 54.4654ZM27.9904 40.2785C27.9947 42.6309 28.6561 45.1918 30.3996 47.4548C32.0169 49.554 34.0526 50.7251 35.6377 51.4064C38.5146 52.643 42.0881 53.1419 45.1638 53.5034L47.2649 35.6264C45.746 35.4479 44.6277 35.2839 43.7931 35.1201C42.9172 34.9481 42.6639 34.8342 42.7456 34.8693C42.8296 34.9053 43.7658 35.3105 44.6584 36.4691C45.6772 37.7914 45.9885 39.2369 45.9904 40.2453L27.9904 40.2785ZM55.2143 44.5483L55.198 35.7163L37.198 35.7495L37.2143 44.5815L55.2143 44.5483ZM45.6822 26.7477C41.891 26.9653 37.9695 27.5526 34.7508 29.2768C32.9968 30.2165 31.1849 31.6347 29.8497 33.745C28.4832 35.9048 27.9866 38.2048 27.9904 40.2785L45.9904 40.2453C45.9919 41.071 45.7812 42.2305 45.0607 43.3691C44.3717 44.4582 43.5662 44.9745 43.2507 45.1435C42.9789 45.2892 43.0302 45.2033 43.6842 45.0666C44.3114 44.9355 45.2848 44.8002 46.7138 44.7181L45.6822 26.7477ZM55.8123 82.146C59.2253 81.9845 63.0493 81.5263 66.2595 79.9401C68.0152 79.0727 69.9267 77.7043 71.3651 75.5565C72.8487 73.3414 73.407 70.9265 73.4029 68.7068L55.4029 68.74C55.4014 67.9123 55.6259 66.71 56.4094 65.5402C57.1478 64.4377 57.9929 63.9473 58.2859 63.8025C58.54 63.677 58.4749 63.7593 57.8266 63.8797C57.209 63.9943 56.2845 64.1035 54.9618 64.1661L55.8123 82.146ZM73.4029 68.7068C73.4004 67.3741 73.2393 65.0894 71.9153 62.7342C70.5227 60.2569 68.4771 58.7998 66.716 57.9396C63.8756 56.5522 60.0905 55.9777 56.5805 55.5017L54.1614 73.3384C56.0123 73.5894 57.2724 73.7969 58.1454 73.9831C59.0907 74.1847 59.1441 74.2736 58.8159 74.1132C58.3519 73.8866 57.1236 73.154 56.2247 71.5548C55.3943 70.0777 55.4031 68.8247 55.4029 68.74L73.4029 68.7068ZM46.371 64.4366L46.3871 73.1726L64.3871 73.1394L64.3709 64.4034L46.371 64.4366ZM184.237 47.8623L193.208 47.1328L192.534 38.847L184.221 38.8624L184.237 47.8623ZM182.692 43.0652L182.709 52.0652L194.22 52.0439L191.423 40.8781L182.692 43.0652ZM155.716 43.1149L148.298 48.2108L150.986 52.1237L155.733 52.1149L155.716 43.1149ZM157.675 64.3273L166.055 67.6106L170.877 55.303L157.659 55.3274L157.675 64.3273ZM138.091 64.3635L129.092 64.3801L129.108 73.3801L138.108 73.3635L138.091 64.3635ZM138.061 47.9475L138.045 38.9475L129.045 38.9641L129.061 47.9641L138.061 47.9475ZM175.267 48.5919C176.277 61.0174 172.879 68.2974 167.902 72.7024C162.575 77.4174 153.816 80.2945 141.481 80.3173L141.514 98.3172C156.155 98.2902 169.944 94.9337 179.833 86.1806C190.071 77.1176 194.554 63.695 193.208 47.1328L175.267 48.5919ZM141.481 80.3173C130.916 80.3367 121.313 78.4407 114.646 74.3171C108.583 70.5671 104.372 64.6928 104.353 54.3457L86.353 54.3789C86.3837 71.0077 93.8694 82.6319 105.178 89.6258C115.882 96.2463 129.327 98.3397 141.514 98.3172L141.481 80.3173ZM104.353 54.3457C104.334 43.9071 108.432 38.0496 114.177 34.3528C120.511 30.2762 129.698 28.3549 139.945 28.336L139.912 10.336C127.983 10.358 114.857 12.5098 104.436 19.2162C93.4242 26.3023 86.3227 37.9375 86.353 54.3789L104.353 54.3457ZM139.945 28.336C149.292 28.3187 157.423 29.9602 163.379 32.9854C169.147 35.9155 172.638 39.967 173.962 45.2522L191.423 40.8781C188.588 29.563 180.969 21.731 171.531 16.9371C162.28 12.2383 151.109 10.3154 139.912 10.336L139.945 28.336ZM182.676 34.0652L155.7 34.1149L155.733 52.1149L182.709 52.0652L182.676 34.0652ZM163.135 38.0191C161.128 35.0977 158.293 32.3001 154.168 30.3265C150.147 28.4023 145.421 27.5099 139.944 27.52L139.977 45.52C143.524 45.5134 145.424 46.0968 146.399 46.5634C147.271 46.9806 147.802 47.4887 148.298 48.2108L163.135 38.0191ZM139.944 27.52C132.204 27.5343 125.021 29.6423 119.86 35.0129C114.756 40.3235 113.028 47.3767 113.041 54.3297L131.041 54.2965C131.033 50.1134 132.073 48.2815 132.838 47.4853C133.546 46.749 135.332 45.5285 139.977 45.52L139.944 27.52ZM113.041 54.3297C113.055 62.1086 115.801 69.1561 121.416 74.1614C126.905 79.0538 134.174 81.1467 141.77 81.1327L141.737 63.1327C137.333 63.1409 134.757 61.94 133.394 60.725C132.158 59.6229 131.047 57.7495 131.041 54.2965L113.041 54.3297ZM141.77 81.1327C155.228 81.1079 163.224 74.8354 166.055 67.6106L149.296 61.0441C149.385 60.8169 149.301 61.2256 148.448 61.7517C147.606 62.2713 145.64 63.1255 141.737 63.1327L141.77 81.1327ZM157.659 55.3274L138.075 55.3635L138.108 73.3635L157.692 73.3273L157.659 55.3274ZM147.091 64.3469L147.061 47.9309L129.061 47.9641L129.092 64.3801L147.091 64.3469ZM138.078 56.9475L184.254 56.8623L184.221 38.8624L138.045 38.9475L138.078 56.9475ZM216.698 67.7705L216.681 58.7705L207.681 58.7871L207.698 67.7871L216.698 67.7705ZM216.735 87.7385L216.751 96.7384L225.751 96.7218L225.735 87.7219L216.735 87.7385ZM190.335 87.7872L181.335 87.8038L181.351 96.8037L190.351 96.7871L190.335 87.7872ZM190.211 20.5873L190.194 11.5873L181.194 11.6039L181.211 20.6039L190.211 20.5873ZM216.643 37.9145L216.626 28.9146L207.626 28.9312L207.643 37.9311L216.643 37.9145ZM216.666 50.5865L207.666 50.6031L207.683 59.6031L216.683 59.5865L216.666 50.5865ZM239.859 29.4957C248.87 29.4791 253.746 31.3284 256.261 33.3699C258.416 35.12 260.059 38.011 260.07 43.6905L278.07 43.6573C278.052 34.1688 275.066 25.4522 267.607 19.396C260.507 13.6313 250.784 11.4755 239.826 11.4957L239.859 29.4957ZM260.07 43.6905C260.082 50.302 257.97 53.2569 255.418 55.0266C252.222 57.2438 246.683 58.7152 238.089 58.731L238.122 76.731C248.057 76.7127 258.016 75.1314 265.678 69.8166C273.985 64.0543 278.09 54.9977 278.07 43.6573L260.07 43.6905ZM238.089 58.731L216.681 58.7705L216.715 76.7705L238.122 76.731L238.089 58.731ZM207.698 67.7871L207.735 87.7551L225.735 87.7219L225.698 67.7539L207.698 67.7871ZM216.718 78.7385L190.318 78.7872L190.351 96.7871L216.751 96.7384L216.718 78.7385ZM199.335 87.7706L199.211 20.5707L181.211 20.6039L181.335 87.8038L199.335 87.7706ZM190.227 29.5873L239.859 29.4957L239.826 11.4957L190.194 11.5873L190.227 29.5873ZM234.251 59.5541C237.865 59.5474 242.395 58.9673 246.134 56.1043C250.4 52.8387 251.774 48.1195 251.766 43.8978L233.766 43.931C233.766 44.202 233.722 43.9515 233.94 43.4291C234.189 42.8319 234.632 42.2411 235.192 41.8122C235.692 41.4296 236.018 41.379 235.851 41.42C235.67 41.4646 235.169 41.5524 234.218 41.5541L234.251 59.5541ZM251.766 43.8978C251.758 39.5706 250.155 34.9469 245.768 31.9101C242.075 29.3541 237.684 28.8757 234.194 28.8822L234.227 46.8821C235.228 46.8803 235.795 46.9618 236.048 47.0172C236.299 47.0722 236.018 47.053 235.523 46.7104C234.954 46.3161 234.407 45.7027 234.063 44.9566C233.752 44.2816 233.766 43.8458 233.766 43.931L251.766 43.8978ZM234.194 28.8822L216.626 28.9146L216.659 46.9145L234.227 46.8821L234.194 28.8822ZM207.643 37.9311L207.666 50.6031L225.666 50.5699L225.643 37.8979L207.643 37.9311ZM216.683 59.5865L234.251 59.5541L234.218 41.5541L216.65 41.5865L216.683 59.5865ZM318.371 28.0069C328.827 27.9876 338.305 30.0146 344.873 34.1888C350.902 38.0205 355.001 43.9185 355.019 53.8833L373.019 53.8501C372.989 37.607 365.632 26.0542 354.528 18.9974C343.964 12.2832 330.634 9.98425 318.338 10.0069L318.371 28.0069ZM355.019 53.8833C355.038 63.9099 350.948 69.8447 344.938 73.704C338.389 77.9095 328.924 79.9715 318.467 79.9908L318.5 97.9908C330.796 97.9681 344.122 95.6201 354.665 88.8501C365.746 81.7338 373.049 70.1276 373.019 53.8501L355.019 53.8833ZM318.467 79.9908C308.01 80.0101 298.567 77.9828 292.03 73.8078C286.035 69.9783 281.934 64.0609 281.915 54.0182L263.915 54.0514C263.945 70.3127 271.252 81.8942 282.341 88.9773C292.889 95.7147 306.205 98.0135 318.5 97.9908L318.467 79.9908ZM281.915 54.0182C281.897 44.0371 285.964 38.1264 291.95 34.2803C298.474 30.0881 307.915 28.0262 318.371 28.0069L318.338 10.0069C306.042 10.0296 292.739 12.3776 282.22 19.1369C271.162 26.2423 263.885 37.8245 263.915 54.0514L281.915 54.0182ZM318.469 80.8068C326.306 80.7924 333.512 78.5154 338.774 73.3339C344.049 68.1395 346.248 61.1304 346.235 53.8995L328.235 53.9327C328.242 57.5499 327.194 59.4748 326.144 60.5081C325.082 61.5542 322.886 62.7986 318.435 62.8068L318.469 80.8068ZM346.235 53.8995C346.222 46.6958 343.984 39.7194 338.69 34.5648C333.412 29.4263 326.207 27.1765 318.37 27.1909L318.403 45.1909C322.854 45.1827 325.063 46.4195 326.133 47.4613C327.186 48.4869 328.229 50.3846 328.235 53.9327L346.235 53.8995ZM318.37 27.1909C310.533 27.2054 303.335 29.4818 298.077 34.6397C292.802 39.8138 290.59 46.7984 290.603 54.0022L308.603 53.969C308.597 50.4208 309.632 48.5193 310.682 47.4898C311.748 46.444 313.952 45.1991 318.403 45.1909L318.37 27.1909ZM290.603 54.0022C290.616 61.233 292.842 68.2339 298.136 73.4088C303.417 78.571 310.632 80.8213 318.469 80.8068L318.435 62.8068C313.984 62.8151 311.784 61.5787 310.718 60.5366C309.665 59.5071 308.61 57.5861 308.603 53.969L290.603 54.0022ZM443.227 20.1206L452.227 20.104L452.21 11.104L443.21 11.1206L443.227 20.1206ZM443.259 37.4966L443.275 46.4966L452.275 46.48L452.259 37.48L443.259 37.4966ZM417.819 37.5435L417.802 28.5435L408.802 28.5601L408.819 37.5601L417.819 37.5435ZM417.911 87.3674L417.927 96.3674L426.927 96.3508L426.911 87.3508L417.911 87.3674ZM391.511 87.4161L382.511 87.4327L382.527 96.4327L391.527 96.4161L391.511 87.4161ZM391.419 37.5922L400.419 37.5756L400.402 28.5756L391.402 28.5922L391.419 37.5922ZM365.979 37.6391L356.979 37.6557L356.995 46.6557L365.995 46.6391L365.979 37.6391ZM365.947 20.2631L365.93 11.2632L356.93 11.2798L356.947 20.2797L365.947 20.2631ZM434.227 20.1372L434.259 37.5132L452.259 37.48L452.227 20.104L434.227 20.1372ZM443.242 28.4966L417.802 28.5435L417.835 46.5435L443.275 46.4966L443.242 28.4966ZM408.819 37.5601L408.911 87.384L426.911 87.3508L426.819 37.5269L408.819 37.5601ZM417.894 78.3674L391.494 78.4161L391.527 96.4161L417.927 96.3674L417.894 78.3674ZM400.511 87.3995L400.419 37.5756L382.419 37.6088L382.511 87.4327L400.511 87.3995ZM391.402 28.5922L365.962 28.6391L365.995 46.6391L391.435 46.5922L391.402 28.5922ZM374.979 37.6225L374.947 20.2465L356.947 20.2797L356.979 37.6557L374.979 37.6225ZM365.963 29.2631L443.243 29.1206L443.21 11.1206L365.93 11.2632L365.963 29.2631ZM500.896 20.0142L500.88 11.0143L491.88 11.0309L491.896 20.0308L500.896 20.0142ZM527.296 19.9655L536.296 19.9489L536.28 10.949L527.28 10.9656L527.296 19.9655ZM448.96 20.11L448.944 11.11L439.944 11.1266L439.96 20.1266L448.96 20.11ZM475.36 20.0613L484.36 20.0447L484.344 11.0447L475.344 11.0613L475.36 20.0613ZM500.913 29.0142L527.313 28.9655L527.28 10.9656L500.88 11.0143L500.913 29.0142ZM518.296 19.9821L518.369 59.5341L536.369 59.5009L536.296 19.9489L518.296 19.9821ZM518.369 59.5341C518.38 65.1274 517.412 68.7373 516.201 71.0955C515.047 73.3439 513.444 74.91 511.275 76.1139C506.364 78.8395 498.79 79.6582 488.238 79.6777L488.272 97.6777C498.552 97.6587 510.56 97.0973 520.01 91.8524C525.021 89.071 529.294 85.0043 532.214 79.3162C535.078 73.7378 536.383 67.1075 536.369 59.5009L518.369 59.5341ZM488.238 79.6777C477.741 79.6971 470.157 78.9078 465.219 76.1957C463.035 74.9961 461.419 73.4316 460.251 71.1868C459.028 68.8346 458.044 65.232 458.033 59.6454L440.033 59.6786C440.047 67.2919 441.385 73.9211 444.281 79.4903C447.233 85.1669 451.53 89.2135 456.554 91.9725C466.031 97.1779 478.033 97.6965 488.272 97.6777L488.238 79.6777ZM458.033 59.6454L457.96 20.0934L439.96 20.1266L440.033 59.6786L458.033 59.6454ZM448.977 29.11L475.377 29.0613L475.344 11.0613L448.944 11.11L448.977 29.11ZM466.36 20.0779L466.431 58.3819L484.431 58.3487L484.36 20.0447L466.36 20.0779ZM466.431 58.3819C466.441 64.0539 467.465 70.3677 472.098 74.9834C476.742 79.6107 482.98 80.5034 488.24 80.4937L488.207 62.4937C484.442 62.5007 484.293 61.7251 484.802 62.232C485.299 62.7273 484.439 62.4686 484.431 58.3487L466.431 58.3819ZM488.24 80.4937C493.52 80.4839 499.786 79.5793 504.416 74.9052C509.022 70.255 509.977 63.9216 509.967 58.3016L491.967 58.3348C491.971 60.2845 491.784 61.429 491.609 62.0439C491.456 62.5837 491.378 62.4898 491.628 62.238C492.161 61.6995 492.046 62.4866 488.207 62.4937L488.24 80.4937ZM509.967 58.3016L509.896 19.9976L491.896 20.0308L491.967 58.3348L509.967 58.3016ZM577.212 44.4495L576.312 53.4044L576.326 53.4058L577.212 44.4495ZM532.227 65.3645L532.21 56.3645L523.21 56.3811L523.227 65.3811L532.227 65.3645ZM559.778 65.3137L568.778 65.2971L568.762 56.2971L559.762 56.3137L559.778 65.3137ZM563.516 61.5628L562.385 70.4916L562.393 70.4926L562.401 70.4935L563.516 61.5628ZM611.189 40.3548L611.205 49.3548L620.205 49.3382L620.189 40.3382L611.189 40.3548ZM584.501 40.4041L575.501 40.4207L575.517 49.4207L584.517 49.4041L584.501 40.4041ZM576.326 53.4058C588.414 54.6022 596.34 55.3812 601.545 57.5372C603.826 58.482 604.865 59.434 605.424 60.2497C605.973 61.0488 606.645 62.5665 606.651 65.7073L624.651 65.6741C624.641 59.8868 623.357 54.5681 620.265 50.064C617.185 45.5764 612.901 42.7581 608.433 40.9074C600.14 37.4723 588.862 36.5587 578.098 35.4933L576.326 53.4058ZM606.651 65.7073C606.657 68.7848 605.994 70.6701 605.199 71.9231C604.399 73.184 603.048 74.4634 600.608 75.6384C595.327 78.1815 586.555 79.4964 573.533 79.5204L573.566 97.5203C586.943 97.4957 599.239 96.2757 608.417 91.8561C613.207 89.5497 617.433 86.2408 620.399 81.5638C623.371 76.8788 624.662 71.4765 624.651 65.6741L606.651 65.7073ZM573.533 79.5204C558.876 79.5474 550.586 77.4122 546.196 74.7444C542.67 72.6015 541.235 69.9113 541.227 65.3479L523.227 65.3811C523.245 75.4097 527.303 84.3254 536.848 90.1264C545.529 95.4025 557.886 97.5493 573.566 97.5203L573.533 79.5204ZM532.243 74.3645L559.795 74.3137L559.762 56.3137L532.21 56.3645L532.243 74.3645ZM550.778 65.3303C550.783 67.9242 551.354 70.8197 553.101 73.5041C554.847 76.1855 557.272 77.8963 559.683 78.9729C564.045 80.9208 569.571 81.3037 575.072 81.2935L575.039 63.2936C572.544 63.2982 570.653 63.1947 569.236 63.0133C567.779 62.8266 567.156 62.5972 567.022 62.5373C566.971 62.5145 567.611 62.8006 568.187 63.6842C568.454 64.0954 568.614 64.4971 568.699 64.8224C568.78 65.1317 568.778 65.311 568.778 65.2971L550.778 65.3303ZM575.072 81.2935C579.532 81.2853 584.002 81.0033 587.596 79.7198C589.506 79.0379 591.832 77.8468 593.69 75.6435C595.703 73.2558 596.532 70.4346 596.527 67.7419L578.527 67.7751C578.525 66.7145 578.888 65.2741 579.929 64.0403C580.814 62.9908 581.66 62.7264 581.543 62.7682C581.442 62.8043 580.919 62.9598 579.722 63.0894C578.566 63.2146 577.034 63.2899 575.039 63.2936L575.072 81.2935ZM596.527 67.7419C596.523 65.5772 596.037 61.9427 592.816 59.0098C590.375 56.7869 587.34 55.9775 585.503 55.553C581.556 54.6413 574.784 53.8996 564.63 52.6321L562.401 70.4935C573.468 71.8749 578.698 72.455 581.451 73.091C582.963 73.4403 581.952 73.4612 580.697 72.3191C578.663 70.4671 578.528 68.1639 578.527 67.7751L596.527 67.7419ZM564.646 52.634C554.18 51.3094 548.755 49.6772 545.937 47.785C544.781 47.0083 544.208 46.2728 543.835 45.4745C543.414 44.5748 543.009 43.0718 543.005 40.4806L525.005 40.5138C525.013 44.8826 525.687 49.1616 527.531 53.1027C529.422 57.1453 532.301 60.3095 535.902 62.728C542.6 67.2262 551.919 69.1668 562.385 70.4916L564.646 52.634ZM543.005 40.4806C543 38.0775 543.494 36.4621 544.156 35.3037C544.813 34.1542 545.923 32.9529 547.93 31.8067C552.249 29.3401 559.969 27.5613 572.477 27.5382L572.444 9.53826C558.936 9.56317 547.414 11.3719 539.002 16.1767C534.644 18.6663 531.016 22.0218 528.531 26.368C526.05 30.7054 524.995 35.5249 525.005 40.5138L543.005 40.4806ZM572.477 27.5382C586.096 27.5131 593.738 29.7434 597.718 32.2717C601.031 34.3759 602.182 36.8698 602.189 40.3714L620.189 40.3382C620.172 31.168 616.263 22.7272 607.369 17.0778C599.143 11.8526 587.432 9.51061 572.444 9.53826L572.477 27.5382ZM611.172 31.3549L584.484 31.4041L584.517 49.4041L611.205 49.3548L611.172 31.3549ZM593.501 40.3875C593.496 38.079 592.971 35.4992 591.442 33.0785C589.921 30.6707 587.81 29.06 585.679 28.0122C581.787 26.0991 576.985 25.6579 572.281 25.6666L572.315 43.6666C574.227 43.663 575.608 43.7665 576.575 43.9136C577.572 44.0655 577.856 44.2242 577.738 44.1662C577.552 44.0748 576.837 43.6616 576.224 42.6921C575.603 41.7097 575.501 40.8092 575.501 40.4207L593.501 40.3875ZM572.281 25.6666C567.392 25.6756 562.841 26.1215 559.219 27.6649C557.284 28.4898 555.153 29.8209 553.517 32.0055C551.792 34.3077 551.11 36.9001 551.114 39.3136L569.114 39.2804C569.116 40.302 568.804 41.6217 567.923 42.7974C567.13 43.8554 566.318 44.206 566.277 44.2235C566.25 44.2351 566.644 44.072 567.737 43.9212C568.795 43.775 570.283 43.6703 572.315 43.6666L572.281 25.6666ZM551.114 39.3136C551.121 42.6245 552.413 45.8954 555.213 48.2984C557.483 50.2473 560.14 51.0758 561.935 51.5192C565.489 52.3969 570.686 52.839 576.312 53.4044L578.112 35.4946C574.986 35.1805 572.522 34.9457 570.447 34.702C568.34 34.4542 567.05 34.2416 566.251 34.0442C565.297 33.8087 565.966 33.8069 566.935 34.6391C567.527 35.1467 568.15 35.8947 568.586 36.8846C569.013 37.8526 569.113 38.7154 569.114 39.2804L551.114 39.3136Z" fill="white" mask="url(#path-1-outside-1_49_330)"/>
<defs>
<linearGradient id="paint0_linear_49_330" x1="329.369" y1="11.9558" x2="329.342" y2="104.206" gradientUnits="userSpaceOnUse">
<stop stop-color="#FA7401"/>
<stop offset="1" stop-color="#B40E02"/>
</linearGradient>
</defs>
</svg>
